<svg xmlns="http://www.w3.org/2000/svg" xmlns:xlink="http://www.w3.org/1999/xlink" viewBox="0 0 1672 941" width="1672" height="941">
<defs>
  <linearGradient id="bg" x1="0" y1="0" x2="1" y2="1"><stop stop-color="#061b46"/><stop offset="1" stop-color="#0b2c69"/></linearGradient>
  <linearGradient id="yellow" x1="0" y1="0" x2="1" y2="0"><stop stop-color="#ffd21c"/><stop offset="1" stop-color="#f4c51c"/></linearGradient>
  <filter id="shadow" x="-30%" y="-30%" width="160%" height="160%"><feDropShadow dx="0" dy="18" stdDeviation="22" flood-color="#001437" flood-opacity=".28"/></filter>
</defs>
<rect width="1672" height="941" fill="url(#bg)"/>
<g opacity=".5" fill="none" stroke="#fff" stroke-opacity=".12">
 <ellipse cx="1000" cy="440" rx="650" ry="330" stroke-width="2"/>
 <ellipse cx="1000" cy="440" rx="520" ry="265" stroke-width="2"/>
 <ellipse cx="1000" cy="440" rx="390" ry="195" stroke-width="2"/>
</g>
<g fill="#ffd21c"><circle cx="104" cy="160" r="5"/><circle cx="1435" cy="150" r="5"/><circle cx="1510" cy="680" r="5"/></g>

<text x="92" y="265" fill="#fff" font-family="Arial,Helvetica,sans-serif" font-size="70" font-weight="800">Le français</text>
<text x="92" y="345" fill="#fff" font-family="Arial,Helvetica,sans-serif" font-size="70" font-weight="800">plus simple,</text>
<rect x="84" y="365" width="570" height="92" rx="20" fill="url(#yellow)" transform="rotate(-2 84 365)"/>
<text x="105" y="438" fill="#061b46" font-family="Arial,Helvetica,sans-serif" font-size="65" font-weight="900">plus proche de toi !</text>
<text x="96" y="505" fill="#dce8ff" font-family="Arial,Helvetica,sans-serif" font-size="25" font-weight="500">Cours interactifs • Quiz • Vidéos • Classes en direct</text>

<g filter="url(#shadow)">
 <rect x="92" y="585" width="310" height="82" rx="41" fill="#ffd21c"/>
 <text x="247" y="637" text-anchor="middle" fill="#061b46" font-family="Arial,Helvetica,sans-serif" font-size="24" font-weight="900">COMMENCER MAINTENANT</text>
 <rect x="418" y="585" width="235" height="82" rx="41" fill="#fff"/>
 <text x="535" y="637" text-anchor="middle" fill="#061b46" font-family="Arial,Helvetica,sans-serif" font-size="24" font-weight="800">Voir la vidéo ▶</text>
</g>
<g fill="#fff" font-family="Arial,Helvetica,sans-serif">
 <text x="95" y="725" font-size="19" font-weight="800">✓ Du 7ème au Bac</text>
 <text x="95" y="758" font-size="19" font-weight="800">✓ Parcours structuré</text>
 <text x="95" y="791" font-size="19" font-weight="800">✓ Suivi de progression</text>
</g>

<g filter="url(#shadow)">
 <rect x="735" y="125" width="335" height="335" rx="167" fill="#fff" opacity=".08"/>
 <image x="760" y="150" width="285" height="285" preserveAspectRatio="xMidYMid meet" xlink:href="/elprof-logo.webp"/>
</g>
<g filter="url(#shadow)">
 <rect x="1110" y="105" width="420" height="630" rx="70" fill="#fff" opacity=".08"/>
 <image x="1140" y="135" width="360" height="540" preserveAspectRatio="xMidYMid meet" xlink:href="/reference/hero-student.svg"/>
</g>
<g filter="url(#shadow)">
 <rect x="760" y="515" width="320" height="135" rx="30" fill="#fff"/>
 <text x="920" y="558" text-anchor="middle" fill="#061b46" font-family="Arial,Helvetica,sans-serif" font-size="22" font-weight="900">APPRENDRE</text>
 <text x="920" y="590" text-anchor="middle" fill="#061b46" font-family="Arial,Helvetica,sans-serif" font-size="22" font-weight="900">RÉUSSIR</text>
 <text x="920" y="622" text-anchor="middle" fill="#061b46" font-family="Arial,Helvetica,sans-serif" font-size="22" font-weight="900">GRANDIR</text>
</g>
<g filter="url(#shadow)">
 <rect x="1020" y="720" width="420" height="115" rx="28" fill="#fff"/>
 <text x="1055" y="758" fill="#60708f" font-family="Arial,Helvetica,sans-serif" font-size="17" font-weight="700">PARCOURS EL PROF</text>
 <text x="1055" y="798" fill="#061b46" font-family="Arial,Helvetica,sans-serif" font-size="28" font-weight="900">Une progression visible.</text>
 <text x="1055" y="825" fill="#60708f" font-family="Arial,Helvetica,sans-serif" font-size="16">Des objectifs clairs, étape après étape.</text>
</g>
<g>
 <path d="M1420 170q70-75 150-15" fill="none" stroke="#ffd21c" stroke-width="5" stroke-linecap="round"/>
 <circle cx="1570" cy="155" r="9" fill="#ffd21c"/>
</g>
</svg>